<?xml version="1.0" encoding="iso-8859-1"?>
<!-- Generator: Adobe Illustrator 19.0.0, SVG Export Plug-In . SVG Version: 6.00 Build 0)  -->
<svg version="1.1" id="Layer_1" xmlns="http://www.w3.org/2000/svg" xmlns:xlink="http://www.w3.org/1999/xlink" x="0px" y="0px"
	 viewBox="0 0 512 512" style="enable-background:new 0 0 512 512;" xml:space="preserve">
<g>
	<g>
		<path d="M275.491,315.818c-1.382-2.242-3.828-3.607-6.461-3.607s-5.079,1.365-6.461,3.607
			c-5.131,8.324-30.728,50.739-30.728,68.346c0,20.506,16.683,37.189,37.189,37.189s37.189-16.683,37.189-37.189
			C306.22,366.557,280.623,324.142,275.491,315.818z M269.03,406.172c-12.135,0-22.009-9.873-22.009-22.009
			c0-8.088,11.384-30.97,22.01-49.496c10.625,18.521,22.008,41.399,22.008,49.496C291.039,396.299,281.166,406.172,269.03,406.172z"
			/>
	</g>
</g>
<g>
	<g>
		<path d="M269.03,359.192c-4.192,0-7.59,3.398-7.59,7.59v23.727c0,4.192,3.398,7.59,7.59,7.59s7.59-3.398,7.59-7.59v-23.727
			C276.621,362.59,273.222,359.192,269.03,359.192z"/>
	</g>
</g>
<g>
	<g>
		<path d="M269.03,214.602c-4.192,0-7.59,3.398-7.59,7.59v48.232c0,4.193,3.398,7.59,7.59,7.59s7.59-3.398,7.59-7.59v-48.232
			C276.621,218.001,273.222,214.602,269.03,214.602z"/>
	</g>
</g>
<g>
	<g>
		<path d="M243.178,273.645l-16.495-45.323c-1.434-3.94-5.791-5.971-9.729-4.537c-3.94,1.434-5.97,5.79-4.537,9.729l16.496,45.323
			c1.122,3.083,4.032,4.996,7.133,4.996c0.862,0,1.739-0.148,2.595-0.459C242.581,281.94,244.611,277.584,243.178,273.645z"/>
	</g>
</g>
<g>
	<g>
		<path d="M212.854,288.108l-31.003-36.947c-2.695-3.211-7.482-3.63-10.693-0.935c-3.211,2.694-3.63,7.482-0.935,10.693
			l31.003,36.947c1.501,1.789,3.651,2.711,5.818,2.711c1.721,0,3.453-0.583,4.875-1.776
			C215.13,296.108,215.549,291.32,212.854,288.108z"/>
	</g>
</g>
<g>
	<g>
		<path d="M189.305,312.071l-41.769-24.116c-3.631-2.097-8.273-0.852-10.368,2.778c-2.096,3.63-0.852,8.272,2.778,10.368
			l41.769,24.116c1.195,0.69,2.501,1.018,3.788,1.018c2.623,0,5.175-1.361,6.58-3.796
			C194.179,318.809,192.935,314.167,189.305,312.071z"/>
	</g>
</g>
<g>
	<g>
		<path d="M400.894,290.734c-2.096-3.63-6.739-4.874-10.368-2.778l-41.77,24.116c-3.63,2.096-4.874,6.738-2.778,10.368
			c1.406,2.435,3.957,3.796,6.58,3.796c1.287,0,2.593-0.328,3.788-1.018l41.77-24.116
			C401.746,299.006,402.99,294.364,400.894,290.734z"/>
	</g>
</g>
<g>
	<g>
		<path d="M366.903,250.226c-3.212-2.695-7.998-2.277-10.693,0.935l-31.003,36.947c-2.695,3.211-2.276,7.998,0.935,10.693
			c1.422,1.193,3.154,1.776,4.875,1.776c2.166,0,4.317-0.922,5.818-2.711l31.003-36.947
			C370.533,257.708,370.115,252.921,366.903,250.226z"/>
	</g>
</g>
<g>
	<g>
		<path d="M321.107,223.785c-3.939-1.435-8.295,0.597-9.729,4.537l-16.496,45.323c-1.434,3.939,0.597,8.295,4.537,9.729
			c0.857,0.312,1.734,0.459,2.595,0.459c3.1,0,6.01-1.914,7.133-4.996l16.496-45.323
			C327.078,229.575,325.047,225.219,321.107,223.785z"/>
	</g>
</g>
<g>
	<g>
		<path d="M482.145,2.183H29.855C13.393,2.183,0,15.576,0,32.038v164.536c0,4.192,3.398,7.59,7.59,7.59s7.59-3.398,7.59-7.59
			v-28.637h481.639v312.025c0,8.091-6.583,14.675-14.674,14.675H29.855c-8.091,0-14.674-6.583-14.674-14.675V253.58
			c0-4.192-3.398-7.59-7.59-7.59S0,249.388,0,253.58v226.382c0,16.462,13.393,29.855,29.855,29.855h452.29
			c16.462,0,29.855-13.393,29.855-29.855V160.347V95.702V32.038C512,15.576,498.607,2.183,482.145,2.183z M496.819,152.757H15.731
			v-49.463h481.088V152.757z M496.819,88.112H15.181V32.038c0-8.091,6.583-14.674,14.674-14.674h452.29
			c8.091,0,14.674,6.583,14.674,14.674V88.112z"/>
	</g>
</g>
<g>
	<g>
		<path d="M454.223,29.967c-12.439,0-22.559,10.12-22.559,22.559c0,12.439,10.119,22.559,22.559,22.559s22.559-10.12,22.559-22.559
			C476.782,40.088,466.662,29.967,454.223,29.967z M454.223,59.905c-4.068,0-7.379-3.31-7.379-7.379
			c0-4.068,3.309-7.379,7.379-7.379s7.379,3.31,7.379,7.379C461.602,56.595,458.291,59.905,454.223,59.905z"/>
	</g>
</g>
<g>
	<g>
		<path d="M393.09,29.967c-12.439,0-22.559,10.12-22.559,22.559c0,12.439,10.12,22.559,22.559,22.559
			c12.44,0,22.559-10.12,22.559-22.559C415.649,40.088,405.529,29.967,393.09,29.967z M393.09,59.905
			c-4.068,0-7.379-3.31-7.379-7.379c0-4.068,3.31-7.379,7.379-7.379c4.069,0,7.379,3.31,7.379,7.379
			C400.469,56.595,397.158,59.905,393.09,59.905z"/>
	</g>
</g>
<g>
	<g>
		<path d="M331.958,29.967c-12.439,0-22.559,10.12-22.559,22.559c0,12.439,10.119,22.559,22.559,22.559s22.559-10.12,22.559-22.559
			C354.517,40.088,344.397,29.967,331.958,29.967z M331.958,59.905c-4.068,0-7.379-3.31-7.379-7.379
			c0-4.068,3.309-7.379,7.379-7.379s7.379,3.31,7.379,7.379C339.337,56.595,336.026,59.905,331.958,59.905z"/>
	</g>
</g>
<g>
	<g>
		<path d="M258.604,29.967H65.707c-12.44,0-22.559,10.12-22.559,22.559c0,12.439,10.119,22.559,22.559,22.559h192.897
			c12.44,0,22.559-10.12,22.559-22.559C281.164,40.088,271.043,29.967,258.604,29.967z M258.604,59.905H65.707
			c-4.069,0-7.379-3.31-7.379-7.379c0-4.068,3.309-7.379,7.379-7.379h192.897c4.069,0,7.379,3.31,7.379,7.379
			C265.983,56.595,262.673,59.905,258.604,59.905z"/>
	</g>
</g>
<g>
</g>
<g>
</g>
<g>
</g>
<g>
</g>
<g>
</g>
<g>
</g>
<g>
</g>
<g>
</g>
<g>
</g>
<g>
</g>
<g>
</g>
<g>
</g>
<g>
</g>
<g>
</g>
<g>
</g>
</svg>
