<?xml version="1.0" encoding="iso-8859-1"?>
<!-- Generator: Adobe Illustrator 19.0.0, SVG Export Plug-In . SVG Version: 6.00 Build 0)  -->
<svg version="1.1" id="Layer_1" xmlns="http://www.w3.org/2000/svg" xmlns:xlink="http://www.w3.org/1999/xlink" x="0px" y="0px"
	 viewBox="0 0 509.287 509.287" style="enable-background:new 0 0 509.287 509.287;" xml:space="preserve">
<circle style="fill:#F1F3F7;" cx="254.644" cy="254.644" r="254.644"/>
<rect x="84.429" y="34.924" style="fill:#0090FF;" width="328.223" height="439.777"/>
<path style="fill:#F0582F;" d="M412.652,67.136v77.648h27.465V94.601C440.117,79.343,427.91,67.136,412.652,67.136z"/>
<rect x="412.652" y="144.106" style="fill:#FBD303;" width="27.465" height="77.648"/>
<rect x="412.652" y="221.415" style="fill:#73D658;" width="27.465" height="77.648"/>
<path style="fill:#4B5AA7;" d="M412.652,299.062v77.648c15.258,0,27.465-12.207,27.465-27.465v-50.183H412.652z"/>
<rect x="109.521" y="76.63" style="fill:#333842;" width="17.293" height="32.89"/>
<rect x="69.171" y="84.429" style="fill:#FCFCFD;" width="48.826" height="16.954"/>
<rect x="109.521" y="157.33" style="fill:#333842;" width="17.293" height="32.89"/>
<rect x="69.171" y="165.468" style="fill:#FCFCFD;" width="48.826" height="16.954"/>
<rect x="109.521" y="238.368" style="fill:#333842;" width="17.293" height="32.89"/>
<rect x="69.171" y="246.167" style="fill:#FCFCFD;" width="48.826" height="16.954"/>
<rect x="109.521" y="319.068" style="fill:#333842;" width="17.293" height="32.89"/>
<rect x="69.171" y="326.866" style="fill:#FCFCFD;" width="48.826" height="16.954"/>
<rect x="109.521" y="399.767" style="fill:#333842;" width="17.293" height="32.89"/>
<g>
	<rect x="69.171" y="407.905" style="fill:#FCFCFD;" width="48.826" height="16.954"/>
	<rect x="178.013" y="157.33" style="fill:#FCFCFD;" width="174.283" height="118.336"/>
</g>
<g>
	<rect x="215.65" y="188.864" style="fill:#DEDEDF;" width="99.009" height="13.563"/>
	<rect x="215.65" y="230.57" style="fill:#DEDEDF;" width="99.009" height="13.563"/>
</g>
<g>
</g>
<g>
</g>
<g>
</g>
<g>
</g>
<g>
</g>
<g>
</g>
<g>
</g>
<g>
</g>
<g>
</g>
<g>
</g>
<g>
</g>
<g>
</g>
<g>
</g>
<g>
</g>
<g>
</g>
</svg>
