<?xml version="1.0" encoding="iso-8859-1"?>
<!-- Generator: Adobe Illustrator 19.0.0, SVG Export Plug-In . SVG Version: 6.00 Build 0)  -->
<svg version="1.1" id="Layer_1" xmlns="http://www.w3.org/2000/svg" xmlns:xlink="http://www.w3.org/1999/xlink" x="0px" y="0px"
	 viewBox="0 0 511.999 511.999" style="enable-background:new 0 0 511.999 511.999;" xml:space="preserve">
<g>
	<g>
		<path d="M414.098,341.348c19.368-11.889,32.316-33.261,32.316-57.606v-25.731v-25.856v-0.075
			c0-37.246-30.302-67.548-67.547-67.548c-0.013,0-0.025,0.001-0.038,0.001c-0.013,0-0.025-0.001-0.038-0.001
			c-7.102,0-13.949,1.107-20.385,3.146V50.96c0-4.149-3.363-7.512-7.512-7.512h-64.175v-9.613c0-4.149-3.362-7.512-7.512-7.512
			h-60.993c-6.327-15.743-21.615-26.3-39.011-26.3c-17.396,0-32.685,10.556-39.012,26.3H79.199c-4.149,0-7.512,3.363-7.512,7.512
			v9.613H7.512C3.362,43.448,0,46.812,0,50.96v419.491c0,4.149,3.362,7.512,7.512,7.512h238.221v26.499
			c0,4.149,3.362,7.512,7.512,7.512h56.032c4.15,0,7.512-3.363,7.512-7.512c0-4.149-3.362-7.512-7.512-7.512h-48.52v-26.499v-5.313
			c0-1.401,0.038-2.799,0.094-4.193c0.011-0.275,0.02-0.551,0.033-0.825c0.062-1.297,0.151-2.59,0.261-3.88
			c0.031-0.366,0.067-0.73,0.102-1.095c0.116-1.205,0.248-2.408,0.406-3.606c0.053-0.4,0.114-0.798,0.171-1.198
			c0.137-0.953,0.288-1.902,0.451-2.85c0.083-0.483,0.162-0.966,0.252-1.446c0.177-0.948,0.377-1.892,0.58-2.836
			c0.019-0.076,0.043-0.15,0.06-0.226c1.522-6.935,3.737-13.684,6.585-20.173c0.064-0.144,0.13-0.287,0.194-0.432
			c0.532-1.199,1.091-2.387,1.667-3.567c0.423-0.86,0.847-1.72,1.294-2.571c0.146-0.28,0.292-0.561,0.441-0.841
			c3.679-6.88,8.135-13.491,13.355-19.752c1.994-2.392,4.086-4.704,6.26-6.936c0.108-0.11,0.216-0.22,0.325-0.331
			c2.114-2.154,4.309-4.232,6.578-6.227c0.097-0.085,0.193-0.172,0.291-0.257c1.098-0.96,2.215-1.899,3.345-2.82
			c0.165-0.134,0.333-0.267,0.499-0.402c1.125-0.906,2.262-1.797,3.417-2.663c0.099-0.074,0.2-0.145,0.3-0.219
			c0.983-0.733,1.98-1.445,2.985-2.149c0.374-0.261,0.746-0.525,1.123-0.782c0.944-0.646,1.898-1.278,2.859-1.898
			c0.58-0.374,1.164-0.74,1.75-1.104c0.441-0.274,0.885-0.543,1.329-0.812c1.298-0.784,2.606-1.549,3.93-2.286
			c0.084-0.047,0.167-0.094,0.251-0.14c7.204-3.984,14.774-7.245,22.555-9.731l12.012,23.338l-16.104,69.902
			c-0.608,2.638,0.251,5.4,2.249,7.228l31.141,28.502c1.435,1.314,3.253,1.97,5.072,1.97c1.819,0,3.637-0.657,5.071-1.97
			l31.141-28.502c1.997-1.828,2.857-4.589,2.249-7.228l-16.104-69.903l12.011-23.337c17.749,5.668,34.385,15.391,48.124,28.445
			c22.968,21.821,35.616,50.163,35.616,79.805v31.811H334.317c-4.15,0-7.512,3.363-7.512,7.512s3.362,7.512,7.512,7.512h170.17
			c4.15,0,7.512-3.363,7.512-7.512v-39.323C512,407.783,469.812,357.263,414.098,341.348z M354.416,185.655
			c0.122-0.065,0.232-0.146,0.35-0.218c7.214-3.742,15.392-5.871,24.062-5.877c28.988,0.02,52.563,23.606,52.563,52.597v17.635
			c-23.899-4.486-33.574-28.797-34.004-29.91c-1.043-2.75-3.594-4.638-6.528-4.834c-2.937-0.198-5.712,1.339-7.109,3.928
			c-0.16,0.297-15.678,28.145-57.407,31.248v-18.143c0-0.796,0.025-1.588,0.06-2.375c0.01-0.225,0.022-0.45,0.035-0.674
			c0.038-0.656,0.088-1.308,0.149-1.957c0.02-0.207,0.039-0.416,0.061-0.622c0.069-0.642,0.152-1.279,0.243-1.913
			c0.049-0.336,0.102-0.671,0.157-1.005c0.066-0.4,0.139-0.797,0.214-1.194c0.127-0.674,0.268-1.344,0.422-2.011
			c0.061-0.264,0.118-0.529,0.183-0.792c0.116-0.471,0.24-0.938,0.37-1.404c0.048-0.174,0.098-0.348,0.148-0.521
			c0.459-1.594,0.989-3.162,1.594-4.698c0.004-0.011,0.009-0.021,0.013-0.032C334.521,201.415,343.057,191.686,354.416,185.655z
			 M86.711,41.347h58.936c3.46,0,6.472-2.363,7.296-5.723c2.972-12.115,13.769-20.577,26.26-20.577
			c12.49,0,23.287,8.462,26.259,20.577c0.823,3.36,3.836,5.723,7.296,5.723h58.937v43.036H86.711V41.347z M318.681,143.891
			c-4.15,0-7.512,3.363-7.512,7.512v80.753v25.864v97.333c-8.393,4.975-16.214,10.796-23.318,17.331
			c-0.112,0.102-0.226,0.203-0.338,0.305c-0.013,0.013-0.027,0.025-0.04,0.038c-11.068,10.181-20.251,21.975-27.162,34.876
			c-0.253,0.47-0.492,0.946-0.739,1.418c-0.346,0.665-0.686,1.331-1.02,2.002c-3.644,7.275-6.529,14.809-8.63,22.537H47.236V317.694
			c0-4.149-3.362-7.512-7.512-7.512c-4.149,0-7.512,3.363-7.512,7.512v123.678c0,4.149,3.363,7.512,7.512,7.512h207.138
			c-0.243,1.777-0.446,3.562-0.609,5.354c-0.074,0.789-0.14,1.581-0.198,2.373c-0.04,0.565-0.084,1.129-0.116,1.695
			c-0.082,1.402-0.137,2.81-0.168,4.222c-0.003,0.137-0.014,0.274-0.016,0.412H15.024V58.472h56.663V69.88H39.724
			c-4.149,0-7.512,3.363-7.512,7.512v215.263c0,4.149,3.363,7.512,7.512,7.512c4.15,0,7.512-3.363,7.512-7.512V84.903h24.451v6.991
			c0,4.149,3.363,7.512,7.512,7.512h200.008c4.15,0,7.512-3.363,7.512-7.512v-6.991h24.45v41.459c0,4.149,3.362,7.512,7.512,7.512
			s7.512-3.363,7.512-7.512V77.391c0-4.149-3.362-7.512-7.512-7.512h-31.962V58.472h56.663v116.104
			c-6.555,4.045-12.366,9.18-17.189,15.146v-38.32C326.193,147.254,322.831,143.891,318.681,143.891z M343.382,341.419
			c-5.893,1.696-11.634,3.782-17.189,6.22V325.96c4.816,5.997,10.627,11.158,17.189,15.225V341.419z M401.703,449.233
			l-22.836,20.902l-22.837-20.902l14.395-62.488h16.882L401.703,449.233z M359.457,353.125c0.651-0.12,1.303-0.231,1.955-0.341
			c0.412-0.068,0.823-0.136,1.235-0.2c0.929-0.145,1.857-0.279,2.789-0.403c0.953-0.124,1.906-0.241,2.86-0.343
			c0.507-0.054,1.015-0.106,1.522-0.154c1.277-0.118,2.555-0.221,3.832-0.297c0.305-0.019,0.612-0.032,0.918-0.048
			c0.876-0.045,1.753-0.068,2.629-0.093c0.557,0.014,1.109,0.042,1.669,0.042s1.113-0.029,1.669-0.042
			c0.876,0.025,1.753,0.048,2.629,0.093c0.305,0.016,0.612,0.029,0.918,0.048c1.278,0.076,2.556,0.179,3.833,0.297
			c0.507,0.048,1.014,0.099,1.52,0.153c0.957,0.101,1.913,0.218,2.869,0.344c0.925,0.122,1.849,0.256,2.772,0.401
			c0.418,0.065,0.836,0.133,1.254,0.202c0.649,0.108,1.297,0.219,1.945,0.339l-9.572,18.597h-19.676L359.457,353.125z
			 M380.898,336.214c-0.643-0.018-1.284-0.042-1.929-0.051c-0.068-0.001-0.137-0.001-0.205,0c-0.645,0.009-1.286,0.033-1.929,0.051
			c-7.865-0.302-15.287-2.34-21.902-5.742c-0.171-0.109-0.337-0.225-0.518-0.323c-12.922-6.858-22.188-18.502-26.06-32.044
			c-0.033-0.117-0.067-0.234-0.1-0.352c-0.139-0.5-0.272-1.002-0.397-1.505c-0.042-0.172-0.079-0.347-0.12-0.519
			c-0.179-0.762-0.341-1.529-0.487-2.302c-0.069-0.371-0.138-0.741-0.199-1.115c-0.057-0.348-0.112-0.695-0.163-1.044
			c-0.088-0.614-0.169-1.23-0.235-1.851c-0.025-0.228-0.046-0.457-0.068-0.686c-0.061-0.642-0.11-1.288-0.148-1.937
			c-0.013-0.226-0.025-0.452-0.035-0.678c-0.035-0.787-0.06-1.578-0.06-2.374v-18.459c33.441-2.122,53.161-17.858,62.932-28.744
			c6.888,10.727,20.188,25.569,42.115,28.475v18.728C431.389,312.023,408.92,335.141,380.898,336.214z"/>
	</g>
</g>
<g>
	<g>
		<path d="M241.973,178.357c-3.291-2.53-8.007-1.913-10.535,1.376c-2.529,3.288-1.913,8.005,1.375,10.534
			c22.721,17.472,36.532,43.186,38.608,71.413l-21.74-0.01c-0.001,0-0.002,0-0.003,0l-74.055-0.033l-47.579-74.665
			c-0.001-0.001-0.002-0.003-0.003-0.004l-3.308-5.191c14.527-7.918,30.809-12.071,47.519-12.071c14.574,0,28.613,3.079,41.728,9.15
			c3.764,1.743,8.23,0.104,9.972-3.661c1.743-3.765,0.105-8.23-3.661-9.973c-15.106-6.993-31.27-10.54-48.039-10.54
			c-22.12,0-43.593,6.327-62.095,18.296c-3.468,2.243-4.474,6.863-2.256,10.345l3.618,5.676
			c-25.067,18.982-39.832,48.417-39.832,80.148c0,31.325,14.219,60.311,39.011,79.526c1.324,1.027,2.945,1.575,4.602,1.575
			c0.323,0,0.647-0.021,0.972-0.063c1.984-0.258,3.783-1.298,4.998-2.89l5.095-6.671c13.67,8.823,29.385,13.459,45.889,13.459
			c44.279,0,80.744-34.081,84.581-77.385l22.369,0.01c0.001,0,0.002,0,0.003,0c1.991,0,3.902-0.791,5.311-2.199
			c1.376-1.375,2.164-3.229,2.201-5.17c0.001-0.064,0.002-0.134,0.002-0.19C286.72,233.318,270.411,200.225,241.973,178.357z
			 M118.816,325.753c-0.003,0.004-0.005,0.008-0.009,0.012l-4.688,6.138c-17.507-16.172-27.408-38.65-27.408-62.756
			c0-26.577,12.173-51.268,32.907-67.437l42.727,67.049L118.816,325.753z M172.253,339.06c-13.171,0-25.732-3.58-36.739-10.415
			l39.702-51.983l56.325,0.025l10.219,0.004C237.984,311.703,208.247,339.06,172.253,339.06z"/>
	</g>
</g>
<g>
</g>
<g>
</g>
<g>
</g>
<g>
</g>
<g>
</g>
<g>
</g>
<g>
</g>
<g>
</g>
<g>
</g>
<g>
</g>
<g>
</g>
<g>
</g>
<g>
</g>
<g>
</g>
<g>
</g>
</svg>
