<?xml version="1.0" encoding="iso-8859-1"?>
<!-- Generator: Adobe Illustrator 19.0.0, SVG Export Plug-In . SVG Version: 6.00 Build 0)  -->
<svg version="1.1" id="Layer_1" xmlns="http://www.w3.org/2000/svg" xmlns:xlink="http://www.w3.org/1999/xlink" x="0px" y="0px"
	 viewBox="0 0 509.287 509.287" style="enable-background:new 0 0 509.287 509.287;" xml:space="preserve">
<circle style="fill:#6EB1E1;" cx="254.644" cy="254.644" r="254.644"/>
<rect x="113.25" y="50.183" style="fill:#FCFCFD;" width="287.534" height="359.756"/>
<rect x="158.008" y="92.567" style="fill:#73D658;" width="129.865" height="18.988"/>
<g>
	<rect x="158.008" y="148.175" style="fill:#DEDEDF;" width="198.019" height="18.988"/>
	<rect x="158.008" y="204.122" style="fill:#DEDEDF;" width="198.019" height="18.988"/>
	<rect x="158.008" y="259.73" style="fill:#DEDEDF;" width="198.019" height="18.988"/>
	<rect x="158.008" y="315.338" style="fill:#DEDEDF;" width="198.019" height="18.988"/>
</g>
<path style="fill:#FBD303;" d="M414.008,323.815h-142.75c-5.764,0-11.189-2.713-14.919-7.121l-33.907-43.062
	c-3.73-4.408-9.155-7.121-14.919-7.121H95.279c-10.511,0-18.988,8.477-18.988,18.988v154.956c0,10.511,8.477,18.988,18.988,18.988
	h319.068c10.511,0,18.988-8.477,18.988-18.988v-97.653C432.996,332.291,424.519,323.815,414.008,323.815z"/>
<g>
</g>
<g>
</g>
<g>
</g>
<g>
</g>
<g>
</g>
<g>
</g>
<g>
</g>
<g>
</g>
<g>
</g>
<g>
</g>
<g>
</g>
<g>
</g>
<g>
</g>
<g>
</g>
<g>
</g>
</svg>
