<?xml version="1.0" encoding="iso-8859-1"?>
<!-- Generator: Adobe Illustrator 19.0.0, SVG Export Plug-In . SVG Version: 6.00 Build 0)  -->
<svg version="1.1" id="Capa_1" xmlns="http://www.w3.org/2000/svg" xmlns:xlink="http://www.w3.org/1999/xlink" x="0px" y="0px"
	 viewBox="0 0 512 512" style="enable-background:new 0 0 512 512;" xml:space="preserve">
<g>
	<g>
		<path d="M512,409.667V38.334H0v371.333h166.333v34h-27.666v30h234.666v-30h-27.666v-34H512z M30,68.334h452v226H30V68.334z
			 M315.667,443.667H196.333v-34h119.334V443.667z M30,379.667v-55.333h452v55.333H30z"/>
	</g>
</g>
<g>
	<g>
		<polygon points="184.033,170.616 169.534,147.081 148.94,159.689 149.57,137.204 121.411,137.204 122.042,159.689 
			101.448,147.081 87.158,170.616 107.332,181.333 87.158,192.051 101.448,215.586 122.042,202.978 121.411,225.464 149.57,225.464 
			148.94,202.978 169.534,215.586 184.033,192.051 163.86,181.333 		"/>
	</g>
</g>
<g>
	<g>
		<polygon points="304.437,170.616 289.938,147.081 269.343,159.689 269.974,137.204 241.815,137.204 242.445,159.689 
			221.852,147.081 207.562,170.616 227.736,181.333 207.562,192.051 221.852,215.586 242.445,202.978 241.815,225.464 
			269.974,225.464 269.343,202.978 289.938,215.586 304.437,192.051 284.264,181.333 		"/>
	</g>
</g>
<g>
	<g>
		<polygon points="424.842,170.616 410.342,147.081 389.748,159.689 390.378,137.204 362.219,137.204 362.85,159.689 
			342.256,147.081 327.966,170.616 348.14,181.333 327.966,192.051 342.256,215.586 362.85,202.978 362.219,225.464 
			390.378,225.464 389.748,202.978 410.342,215.586 424.842,192.051 404.668,181.333 		"/>
	</g>
</g>
<g>
</g>
<g>
</g>
<g>
</g>
<g>
</g>
<g>
</g>
<g>
</g>
<g>
</g>
<g>
</g>
<g>
</g>
<g>
</g>
<g>
</g>
<g>
</g>
<g>
</g>
<g>
</g>
<g>
</g>
</svg>
